<svg width="47" height="79" viewBox="0 0 47 79" fill="none" xmlns="http://www.w3.org/2000/svg">
<mask id="path-1-outside-1_1741_50" maskUnits="userSpaceOnUse" x="6" y="16" width="41" height="48" fill="black">
<rect fill="white" x="6" y="16" width="41" height="48"/>
<path d="M31.5 17.5V63H20.5312V17.5H31.5ZM45.1875 17.5V25.9688H7.15625V17.5H45.1875Z"/>
</mask>
<path d="M31.5 17.5H32.5V16.5H31.5V17.5ZM31.5 63V64H32.5V63H31.5ZM20.5312 63H19.5312V64H20.5312V63ZM20.5312 17.5V16.5H19.5312V17.5H20.5312ZM45.1875 17.5H46.1875V16.5H45.1875V17.5ZM45.1875 25.9688V26.9688H46.1875V25.9688H45.1875ZM7.15625 25.9688H6.15625V26.9688H7.15625V25.9688ZM7.15625 17.5V16.5H6.15625V17.5H7.15625ZM30.5 17.5V63H32.5V17.5H30.5ZM31.5 62H20.5312V64H31.5V62ZM21.5312 63V17.5H19.5312V63H21.5312ZM20.5312 18.5H31.5V16.5H20.5312V18.5ZM44.1875 17.5V25.9688H46.1875V17.5H44.1875ZM45.1875 24.9688H7.15625V26.9688H45.1875V24.9688ZM8.15625 25.9688V17.5H6.15625V25.9688H8.15625ZM7.15625 18.5H45.1875V16.5H7.15625V18.5Z" fill="#00FFB2" mask="url(#path-1-outside-1_1741_50)"/>
<mask id="path-3-outside-2_1741_50" maskUnits="userSpaceOnUse" x="0" y="12" width="41" height="48" fill="black">
<rect fill="white" y="12" width="41" height="48"/>
<path d="M25.5 13.5V59H14.5312V13.5H25.5ZM39.1875 13.5V21.9688H1.15625V13.5H39.1875Z"/>
</mask>
<path d="M25.5 13.5H26.5V12.5H25.5V13.5ZM25.5 59V60H26.5V59H25.5ZM14.5312 59H13.5312V60H14.5312V59ZM14.5312 13.5V12.5H13.5312V13.5H14.5312ZM39.1875 13.5H40.1875V12.5H39.1875V13.5ZM39.1875 21.9688V22.9688H40.1875V21.9688H39.1875ZM1.15625 21.9688H0.15625V22.9688H1.15625V21.9688ZM1.15625 13.5V12.5H0.15625V13.5H1.15625ZM24.5 13.5V59H26.5V13.5H24.5ZM25.5 58H14.5312V60H25.5V58ZM15.5312 59V13.5H13.5312V59H15.5312ZM14.5312 14.5H25.5V12.5H14.5312V14.5ZM38.1875 13.5V21.9688H40.1875V13.5H38.1875ZM39.1875 20.9688H1.15625V22.9688H39.1875V20.9688ZM2.15625 21.9688V13.5H0.15625V21.9688H2.15625ZM1.15625 14.5H39.1875V12.5H1.15625V14.5Z" fill="#FFA800" mask="url(#path-3-outside-2_1741_50)"/>
</svg>
